<svg width="17" height="17" viewBox="0 0 17 17" fill="none" xmlns="http://www.w3.org/2000/svg">
<path d="M12.3733 0V1.32193H14.7283L12.4975 3.57317C11.7002 2.9711 10.7285 2.6449 9.72939 2.64386C8.49339 2.64386 7.33935 3.13297 6.46555 4.00743C6.03364 4.43413 5.69073 4.94234 5.45671 5.50257C5.22269 6.06281 5.10222 6.66393 5.10228 7.27108C5.10235 7.87822 5.22294 8.47932 5.45707 9.03951C5.6912 9.59969 6.03421 10.1078 6.46621 10.5344C7.04125 11.1095 7.72601 11.5226 8.49009 11.7321C8.56544 11.6746 8.65004 11.6145 8.71746 11.547C8.9945 11.2653 9.19357 10.9163 9.29514 10.5344C8.57556 10.4456 7.90651 10.1182 7.39487 9.60447C6.77092 8.98118 6.42457 8.15366 6.42457 7.27061C6.42457 6.38756 6.77158 5.56135 7.39619 4.9374C8.01882 4.31147 8.84635 3.96579 9.72939 3.96579C10.6124 3.96579 11.4393 4.31279 12.0626 4.9374C12.371 5.24259 12.6157 5.60599 12.7825 6.00652C12.9493 6.40706 13.0348 6.83673 13.0342 7.27061C13.0342 7.84234 12.8723 8.37442 12.6006 8.86089C12.6641 9.20194 12.7037 9.56019 12.7037 9.91446C12.7037 10.2436 12.676 10.5688 12.6211 10.8861C12.7533 10.7783 12.871 10.6561 12.9932 10.5344C13.867 9.65933 14.3561 8.50661 14.3561 7.27061C14.3561 6.25933 14.023 5.29829 13.4268 4.50249L15.6781 2.2724V4.62675H17V0H12.3733ZM8.32485 5.45296C8.24949 5.51046 8.16489 5.57061 8.09747 5.63802C7.81194 5.92488 7.62554 6.27255 7.51979 6.65128C8.24024 6.74382 8.8979 7.05844 9.42006 7.5806C10.0447 8.20389 10.3917 9.03142 10.3917 9.9138C10.3917 10.7962 10.0447 11.6231 9.42006 12.247C8.79611 12.8736 7.96859 13.2193 7.08554 13.2193C6.20249 13.2193 5.37562 12.8723 4.75233 12.2477C4.4437 11.9427 4.19884 11.5793 4.03203 11.1787C3.86522 10.7781 3.77979 10.3484 3.78072 9.91446C3.78072 9.34273 3.94265 8.81065 4.21431 8.32418C4.14794 7.97686 4.11343 7.62421 4.1112 7.27061C4.1112 6.94145 4.13896 6.61625 4.19382 6.29899C4.06163 6.40673 3.94463 6.529 3.8217 6.65128C2.94922 7.52442 2.45879 8.67846 2.45879 9.91446C2.45879 10.9257 2.79191 11.8868 3.3881 12.6826L2.27372 13.7976L0.951788 12.4757L0 13.405L1.32193 14.7269L0 16.0489L0.951788 17.0007L2.27372 15.6787L3.59565 17.0007L4.5243 16.0489L3.20237 14.7269L4.31808 13.6126C5.11465 14.2156 6.08648 14.5417 7.08554 14.5412C8.32154 14.5412 9.47558 14.0521 10.3494 13.1776C11.2232 12.3045 11.7123 11.1505 11.7123 9.91446C11.7123 8.67846 11.2232 7.52574 10.3487 6.65062C9.77368 6.07558 9.08892 5.66248 8.32485 5.45296Z" fill="black"/>
</svg>
