<svg width="17" height="17" viewBox="0 0 17 17" fill="none" xmlns="http://www.w3.org/2000/svg">
<path d="M6.23333 0.00113341C5.70474 -0.0115068 5.17897 0.0816885 4.68692 0.275237C4.19488 0.468786 3.74652 0.758779 3.3682 1.12816C2.98988 1.49754 2.68925 1.93884 2.48399 2.42612C2.27874 2.91339 2.173 3.43679 2.173 3.96553C2.173 4.49427 2.27874 5.01767 2.48399 5.50495C2.68925 5.99222 2.98988 6.43353 3.3682 6.80291C3.74652 7.17229 4.19488 7.46228 4.68692 7.65583C5.17897 7.84938 5.70474 7.94257 6.23333 7.92993C6.76192 7.94257 7.2877 7.84938 7.77974 7.65583C8.27178 7.46228 8.72015 7.17229 9.09847 6.80291C9.47679 6.43353 9.77742 5.99222 9.98267 5.50495C10.1879 5.01767 10.2937 4.49427 10.2937 3.96553C10.2937 3.43679 10.1879 2.91339 9.98267 2.42612C9.77742 1.93884 9.47679 1.49754 9.09847 1.12816C8.72015 0.758779 8.27178 0.468786 7.77974 0.275237C7.2877 0.0816885 6.76192 -0.0115068 6.23333 0.00113341ZM3.96667 10.1943C2.91464 10.1943 1.9057 10.6122 1.16181 11.3561C0.417915 12.1 0 13.109 0 14.161L0 16.9909H12.4667V14.161C12.4667 13.109 12.0488 12.1 11.3049 11.3561C10.561 10.6122 9.55203 10.1943 8.5 10.1943H3.96667ZM14.1667 11.3345H13.6V17.0011H17V14.1678C17 13.4164 16.7015 12.6957 16.1701 12.1643C15.6388 11.633 14.9181 11.3345 14.1667 11.3345Z" fill="black"/>
<path d="M13.0326 4.53516C12.2811 4.53516 11.5604 4.83367 11.0291 5.36502C10.4977 5.89637 10.1992 6.61704 10.1992 7.36849C10.1992 8.11994 10.4977 8.84061 11.0291 9.37196C11.5604 9.90331 12.2811 10.2018 13.0326 10.2018C13.784 10.2018 14.5047 9.90331 15.036 9.37196C15.5674 8.84061 15.8659 8.11994 15.8659 7.36849C15.8659 6.61704 15.5674 5.89637 15.036 5.36502C14.5047 4.83367 13.784 4.53516 13.0326 4.53516Z" fill="black"/>
</svg>
